P3
5 3
255
  0   0 255      0   0   0    100 100 100      0   0   0      0   0   0
  0   0   0      0   0   0      0   0   0     77   0   0     77   0   0
  0   0   0      0   0   0      0   0   0     77   0   0     77   0   0
